<svg width="20.459473" height="20.110840" viewBox="0 0 20.4595 20.1108" fill="none" xmlns="http://www.w3.org/2000/svg" xmlns:xlink="http://www.w3.org/1999/xlink">
	<desc>
			Created with Pixso.
	</desc>
	<defs/>
	<path d="M4.1731 15.1375C3.93915 14.8586 3.953 14.4545 4.19116 14.1925L4.26166 14.1248L15.2736 4.88477C15.5776 4.62952 16.031 4.66919 16.2861 4.97327C16.52 5.25208 16.5062 5.65625 16.2681 5.91821L16.1976 5.98596L5.18567 15.226C4.88159 15.4812 4.42822 15.4415 4.1731 15.1375Z" fill="#FFFFFF" fill-opacity="1.000000" fill-rule="nonzero"/>
	<path d="M7.52203 5.45557C7.12653 5.42188 6.83325 5.07385 6.867 4.67834C6.89771 4.31885 7.18805 4.0437 7.53778 4.02209L7.64429 4.02332L15.7965 4.71887C16.1572 4.74963 16.4326 5.04163 16.453 5.39233L16.4513 5.49915L15.7213 13.649C15.6859 14.0444 15.3367 14.3362 14.9413 14.3008C14.5818 14.2687 14.308 13.9771 14.2878 13.6273L14.2895 13.5208L14.9547 6.08972L7.52203 5.45557Z" fill="#FFFFFF" fill-opacity="1.000000" fill-rule="nonzero"/>
</svg>
